<?xml version="1.0" encoding="UTF-8"?>
<svg version="1.1" xmlns="http://www.w3.org/2000/svg" width="441" height="226">
<path d="M0 0 C145.53 0 291.06 0 441 0 C441 74.58 441 149.16 441 226 C295.47 226 149.94 226 0 226 C0 151.42 0 76.84 0 0 Z " fill="#FEFEFE" transform="translate(0,0)"/>
<path d="M0 0 C7.65175929 0.97682034 14.75342996 2.48223211 22 5.1875 C31.87071117 8.81391345 42.03043859 11.44221875 52.16601562 14.21728516 C55.70440153 15.19454784 59.22688551 16.21913354 62.75 17.25 C66.91567171 18.45465354 71.07223175 19.46971574 75.3125 20.375 C81.27404607 21.70220551 86.88555445 23.64479597 92.61230469 25.72900391 C101.19890096 28.8388805 109.94592246 31.28946189 118.8203125 33.44140625 C127.6152336 35.6953018 136.31479192 38.35841598 145 41 C144.42680209 44.25527371 143.56919896 45.76991361 141.11328125 47.9609375 C140.51136963 48.50806396 139.90945801 49.05519043 139.28930664 49.61889648 C138.31078735 50.48816772 138.31078735 50.48816772 137.3125 51.375 C135.94064753 52.62143351 134.57090807 53.870196 133.203125 55.12109375 C132.15415039 56.07991455 132.15415039 56.07991455 131.08398438 57.05810547 C127.2500418 60.63064287 123.58366506 64.36973661 119.92114258 68.11669922 C117.12353856 70.95729091 114.2745409 73.6595136 111.24609375 76.25390625 C106.06262626 80.73242713 101.3065747 85.6244644 96.5 90.5 C91.14583557 95.93098171 85.79913792 101.25531363 80.00585938 106.21679688 C75.98868506 109.78805311 72.26886991 113.67063459 68.5 117.5 C63.42732499 122.65409836 58.33090931 127.65782388 52.83984375 132.36523438 C49.41574108 135.40766955 46.31775779 138.78752611 43.2265625 142.1640625 C41.734375 143.71875 41.734375 143.71875 39 146 C36.7109375 145.9921875 36.7109375 145.9921875 35 145 C32.88872741 140.54286897 32.39351422 135.61885067 31.56640625 130.79296875 C31.05085626 128.25077395 30.37121568 125.93852831 29.5 123.5 C27.99422354 119.28382592 27.26577368 115.09464208 26.53125 110.6875 C26.03526963 108.17842282 25.35891873 105.90497245 24.5 103.5 C22.99422354 99.28382592 22.26577368 95.09464208 21.53125 90.6875 C21.03526963 88.17842282 20.35891873 85.90497245 19.5 83.5 C18.38203282 80.34076936 17.6247978 77.30412156 17.0625 74 C14.03424638 56.22122068 8.85865852 38.78515692 4.30957031 21.35449219 C3.74287822 19.17511514 3.18264507 16.99420621 2.625 14.8125 C2.32851562 13.66394531 2.03203125 12.51539063 1.7265625 11.33203125 C0.90289524 7.55467548 0.42820163 3.84122048 0 0 Z " fill="#191919" transform="translate(150,43)"/>
<path d="M0 0 C8.37405513 1.12841878 16.06484215 3.10169766 24 6 C23.505 4.515 23.505 4.515 23 3 C26.96 3.99 30.92 4.98 35 6 C34.01943049 9.92227803 33.87301399 10.49886789 31.11328125 12.9609375 C30.51136963 13.50806396 29.90945801 14.05519043 29.28930664 14.61889648 C28.31078735 15.48816772 28.31078735 15.48816772 27.3125 16.375 C25.94064753 17.62143351 24.57090807 18.870196 23.203125 20.12109375 C22.50380859 20.76030762 21.80449219 21.39952148 21.08398438 22.05810547 C17.2500418 25.63064287 13.58366506 29.36973661 9.92114258 33.11669922 C7.12353856 35.95729091 4.2745409 38.6595136 1.24609375 41.25390625 C-3.93737374 45.73242713 -8.6934253 50.6244644 -13.5 55.5 C-18.85416443 60.93098171 -24.20086208 66.25531363 -29.99414062 71.21679688 C-34.01131494 74.78805311 -37.73113009 78.67063459 -41.5 82.5 C-46.57267501 87.65409836 -51.66909069 92.65782388 -57.16015625 97.36523438 C-60.58425892 100.40766955 -63.68224221 103.78752611 -66.7734375 107.1640625 C-68.265625 108.71875 -68.265625 108.71875 -71 111 C-73.28125 111.01953125 -73.28125 111.01953125 -75 110 C-76.59844485 106.40349908 -77 103.96602757 -77 100 C-76.34 100 -75.68 100 -75 100 C-76.65 92.08 -78.3 84.16 -80 76 C-73.48119975 77.18523641 -68.88225602 78.03924799 -63 80 C-61.33368438 80.03420589 -59.66621011 80.03900826 -58 80 C-64.61760511 77.72795558 -71.17973243 75.5739079 -78 74 C-76.55250158 70.68434277 -74.73814825 68.48093925 -72.19140625 65.92578125 C-71.44439453 65.17619141 -70.69738281 64.42660156 -69.92773438 63.65429688 C-69.14720703 62.88150391 -68.36667969 62.10871094 -67.5625 61.3125 C-66.78583984 60.52810547 -66.00917969 59.74371094 -65.20898438 58.93554688 C-64.46068359 58.18982422 -63.71238281 57.44410156 -62.94140625 56.67578125 C-62.25763916 55.99427002 -61.57387207 55.31275879 -60.86938477 54.6105957 C-59 53 -59 53 -56 52 C-53.92373687 56.62440425 -52.29977048 61.1008651 -51 66 C-51.14183696 64.24967156 -51.28863429 62.49974466 -51.4375 60.75 C-51.51871094 59.77546875 -51.59992188 58.8009375 -51.68359375 57.796875 C-51.95074584 55.43538247 -52.35371968 53.28098935 -53 51 C-48.09098139 51.89683994 -43.3199874 53.25559272 -38.52734375 54.62695312 C-34.92779728 55.61955533 -31.73607352 56.22272746 -28 56 C-29.46759766 55.51080078 -29.46759766 55.51080078 -30.96484375 55.01171875 C-37.9765625 52.67447917 -44.98828125 50.33723958 -52 48 C-46.44849503 41.21482725 -40.23163553 35.1507052 -34 29 C-32.99895123 28.00104987 -31.99828327 27.00171379 -31 26 C-30.01 26.33 -29.02 26.66 -28 27 C-27.3125 29.0625 -27.3125 29.0625 -27 31 C-27.020625 30.35933594 -27.04125 29.71867187 -27.0625 29.05859375 C-26.8968478 22.1115545 -26.8968478 22.1115545 -24.43359375 19.05859375 C-23.06958023 17.90812442 -21.67263413 16.79588727 -20.25 15.71875 C-17.912434 13.93310931 -15.9676116 12.00027308 -13.9375 9.875 C-10.5414749 6.41845168 -7.02823596 3.68549064 -3 1 C-0.61054117 6.17601971 0.94174462 11.19499739 2.1875 16.75 C2.36474609 17.50410156 2.54199219 18.25820312 2.72460938 19.03515625 C3.42579079 22.0835357 4 24.86188848 4 28 C4.66 28 5.32 28 6 28 C5.37829964 24.83267649 4.75202871 21.66627261 4.125 18.5 C3.86396484 17.1696875 3.86396484 17.1696875 3.59765625 15.8125 C2.54242377 10.49725491 1.36042333 5.24559627 0 0 Z " fill="#171717" transform="translate(260,78)"/>
<path d="M0 0 C6.47180685 1.35836107 12.7467193 3.04776174 19.0625 5 C26.10221637 7.16975494 26.10221637 7.16975494 33.21875 9.06640625 C36.67018823 9.9185692 40.04946282 10.86282324 43.4375 11.9375 C44.46746094 12.25589844 45.49742187 12.57429688 46.55859375 12.90234375 C47.76708984 13.44568359 47.76708984 13.44568359 49 14 C49.495 15.485 49.495 15.485 50 17 C46.06951977 16.59057498 42.72937546 15.9885336 39.0625 14.5 C35.03719735 12.88515256 31.31126252 12.38493415 27 12 C27.19335938 12.59425781 27.38671875 13.18851563 27.5859375 13.80078125 C30.15265181 21.97106491 32.46684879 30.36329747 32 39 C31.34 39 30.68 39 30 39 C27.4853638 30.37109608 25.11220927 21.73686561 23 13 C16.76102321 17.28165074 11.61223727 22.23826053 6.39379883 27.68041992 C4.96387837 29.15472532 3.48555927 30.58177486 2 32 C1.34 32 0.68 32 0 32 C0.18433594 32.57234375 0.36867187 33.1446875 0.55859375 33.734375 C1.28163726 37.44557179 0.02067687 40.39761105 -1 44 C-1.33 44 -1.66 44 -2 44 C-2.12375 43.030625 -2.2475 42.06125 -2.375 41.0625 C-2.58125 40.051875 -2.7875 39.04125 -3 38 C-3.99 37.505 -3.99 37.505 -5 37 C-5.33 37.99 -5.66 38.98 -6 40 C-7.4609375 41.4375 -7.4609375 41.4375 -9.375 43 C-14.90657712 47.67669702 -19.9246533 52.84068616 -25 58 C-21.72110627 60.18592915 -19.04637843 60.92323151 -15.25 61.9375 C-10.28233354 63.31055067 -5.64879982 64.7862858 -1 67 C-1 67.33 -1 67.66 -1 68 C-9.97668265 67.25194311 -18.67189736 65.51056881 -27 62 C-26.68289062 62.53109375 -26.36578125 63.0621875 -26.0390625 63.609375 C-24.7629651 66.54535848 -24.58292979 69.06174329 -24.375 72.25 C-24.30023438 73.32765625 -24.22546875 74.4053125 -24.1484375 75.515625 C-24.09945312 76.33546875 -24.05046875 77.1553125 -24 78 C-27.05906926 75.48933531 -27.75191278 73.09940067 -28.6875 69.3125 C-28.93886719 68.31863281 -29.19023437 67.32476562 -29.44921875 66.30078125 C-29.63097656 65.54152344 -29.81273437 64.78226562 -30 64 C-35.32810015 66.67453846 -39.12240981 70.86438444 -43.25 75.0625 C-44.34828125 76.16174805 -44.34828125 76.16174805 -45.46875 77.28320312 C-49.17451915 80.81355804 -49.17451915 80.81355804 -52 85 C-51.23816406 85.09796875 -50.47632813 85.1959375 -49.69140625 85.296875 C-42.87195358 86.28446115 -37.11849629 87.81714587 -31 91 C-31 91.33 -31 91.66 -31 92 C-37.17247152 91.49405971 -42.77241384 90.36788398 -48.71484375 88.62109375 C-50.9269877 87.91257339 -50.9269877 87.91257339 -53 88 C-52.71125 89.15757812 -52.4225 90.31515625 -52.125 91.5078125 C-51.74964029 93.04678731 -51.37466035 94.58585478 -51 96.125 C-50.71382812 97.26582031 -50.71382812 97.26582031 -50.421875 98.4296875 C-49.3872748 102.71588834 -48.7727289 106.55400901 -49 111 C-49.66 111 -50.32 111 -51 111 C-54.93193814 99.0391042 -57.76404603 87.56553203 -59 75 C-58.34 75 -57.68 75 -57 75 C-56.67 77.31 -56.34 79.62 -56 82 C-49.85773225 76.92595273 -44.28403792 71.3434741 -38.74951172 65.62451172 C-38.16443848 65.02783691 -37.57936523 64.43116211 -36.9765625 63.81640625 C-36.45143066 63.27443604 -35.92629883 62.73246582 -35.38525391 62.17407227 C-34 61 -34 61 -32 61 C-32 60.34 -32 59.68 -32 59 C-33.32 58.67 -34.64 58.34 -36 58 C-36 57.67 -36 57.34 -36 57 C-34.35 57 -32.7 57 -31 57 C-31.2165625 56.26394531 -31.433125 55.52789062 -31.65625 54.76953125 C-31.9346875 53.79371094 -32.213125 52.81789062 -32.5 51.8125 C-32.7784375 50.84957031 -33.056875 49.88664062 -33.34375 48.89453125 C-33.96677608 46.14654124 -34.12302812 43.80401584 -34 41 C-33.34 41 -32.68 41 -32 41 C-30.094753 46.10334017 -28.57410977 50.46342706 -29 56 C-28.34 56 -27.68 56 -27 56 C-26.67 55.01 -26.34 54.02 -26 53 C-24.5390625 51.5625 -24.5390625 51.5625 -22.625 50 C-17.09342288 45.32330298 -12.0753467 40.15931384 -7 35 C-10.12472047 33.27143123 -13.08677231 32.41178257 -16.5625 31.625 C-22.56088111 30.1862739 -28.25372266 28.22837921 -34 26 C-34 25.34 -34 24.68 -34 24 C-25.66778097 24.79354467 -18.08084185 26.16577584 -10.2109375 29.07421875 C-9.2317334 29.43475342 -8.2525293 29.79528809 -7.24365234 30.16674805 C-6.50324707 30.44172119 -5.7628418 30.71669434 -5 31 C-5.18175781 30.33468262 -5.36351562 29.66936523 -5.55078125 28.98388672 C-6.37498679 25.94964797 -7.18758289 22.91241533 -8 19.875 C-8.28617188 18.82828125 -8.57234375 17.7815625 -8.8671875 16.703125 C-9.13789063 15.68476562 -9.40859375 14.66640625 -9.6875 13.6171875 C-9.93886719 12.68503418 -10.19023437 11.75288086 -10.44921875 10.79248047 C-11.03985386 7.7979395 -11.09428371 5.04457826 -11 2 C-10.34 2 -9.68 2 -9 2 C-6.06497036 10.92831536 -3.32558317 19.66156333 -2 29 C1.33121544 27.54990314 3.52056562 25.72522324 6.07421875 23.15625 C6.82380859 22.40472656 7.57339844 21.65320313 8.34570312 20.87890625 C9.11849609 20.09386719 9.89128906 19.30882813 10.6875 18.5 C11.47189453 17.71496094 12.25628906 16.92992188 13.06445312 16.12109375 C16.99336987 12.40551891 16.99336987 12.40551891 20 8 C18.906875 7.9175 17.81375 7.835 16.6875 7.75 C11.25253243 7.06819403 5.88488696 5.48966119 1 3 C0.505 1.515 0.505 1.515 0 0 Z " fill="#121212" transform="translate(234,67)"/>
<path d="M0 0 C7.65175929 0.97682034 14.75342996 2.48223211 22 5.1875 C29.79621891 8.05800326 37.74970017 10.24248528 45.765625 12.4128418 C61.38750928 16.67054681 61.38750928 16.67054681 67 19 C67.495 19.99 67.495 19.99 68 21 C58.77568093 19.69450978 49.94941091 17.51855006 41 15 C41.47797076 17.41690876 41.9573322 19.83352763 42.4375 22.25 C42.57220703 22.93191406 42.70691406 23.61382812 42.84570312 24.31640625 C43.63830259 28.30166294 43.63830259 28.30166294 44.59375 32.25 C45.26574987 35.14476868 45.05683545 38.04455652 45 41 C43 40 43 40 42.34570312 38.3293457 C42.15943359 37.61866943 41.97316406 36.90799316 41.78125 36.17578125 C41.57113281 35.39396484 41.36101562 34.61214844 41.14453125 33.80664062 C40.93183594 32.98357422 40.71914062 32.16050781 40.5 31.3125 C40.07434707 29.70404787 39.64729076 28.09596638 39.21875 26.48828125 C39.01507813 25.72209473 38.81140625 24.9559082 38.6015625 24.16650391 C37.83571441 21.40833184 36.94295208 18.7022562 36 16 C33.24902245 18.58229399 30.49939228 21.16601831 27.75 23.75 C26.97269531 24.47960937 26.19539063 25.20921875 25.39453125 25.9609375 C24.64042969 26.66992188 23.88632813 27.37890625 23.109375 28.109375 C22.41811523 28.75874023 21.72685547 29.40810547 21.01464844 30.07714844 C18.97789291 32.02109978 16.98304026 34.00140648 15 36 C15.99 36.33 16.98 36.66 18 37 C18.33 37.99 18.66 38.98 19 40 C17.02 40 15.04 40 13 40 C13.28875 41.00160156 13.5775 42.00320312 13.875 43.03515625 C14.25047293 44.37747197 14.62544631 45.71992749 15 47.0625 C15.19078125 47.71927734 15.3815625 48.37605469 15.578125 49.05273438 C16.79596429 53.4674018 17.19227394 57.37941677 17 62 C16.34 62 15.68 62 15 62 C12.13466394 51.85389198 9.37224744 41.70138089 6.89453125 31.453125 C6.05278976 28.03315977 6.05278976 28.03315977 4.94921875 24.88671875 C4.03308645 22.10062092 3.46993551 19.45344259 3 16.5625 C2.445931 13.32603348 1.83595632 10.20252628 0.875 7.0625 C0 4 0 4 0 0 Z " fill="#141414" transform="translate(150,43)"/>
<path d="M0 0 C1.3087546 3.55233392 2.2409024 7.03871529 2.9375 10.75 C3.78042783 15.21414579 4.99510396 19.46036549 6.4140625 23.7734375 C7 26 7 26 7 30 C0.58275786 29.40165574 -5.23081121 27.91272837 -11.375 26 C-12.27605469 25.72671875 -13.17710937 25.4534375 -14.10546875 25.171875 C-20.67446911 23.16276544 -20.67446911 23.16276544 -23 22 C-21.49867699 18.34924186 -19.41104665 16.36723727 -16.4375 13.8125 C-12.01133616 9.94522767 -7.87590415 5.89714988 -3.8125 1.65234375 C-2 0 -2 0 0 0 Z " fill="#F2F2F2" transform="translate(196,94)"/>
<path d="M0 0 C10.64703073 1.41634813 20.78280975 4.8079726 31 8 C26.94581708 12.8541568 22.71899422 17.463369 18.25 21.9375 C17.67378906 22.52595703 17.09757812 23.11441406 16.50390625 23.72070312 C15.04211829 25.18760223 13.52517091 26.59911788 12 28 C11.34 28 10.68 28 10 28 C10 28.66 10 29.32 10 30 C9.34 30 8.68 30 8 30 C1.23404255 9.46808511 1.23404255 9.46808511 0 0 Z " fill="#F6F6F6" transform="translate(180,154)"/>
<path d="M0 0 C0.99 0.33 1.98 0.66 3 1 C3.87890625 3.58984375 3.87890625 3.58984375 4.5625 6.9375 C4.80871094 8.113125 5.05492187 9.28875 5.30859375 10.5 C5.65083984 12.2325 5.65083984 12.2325 6 14 C6.29583984 15.423125 6.29583984 15.423125 6.59765625 16.875 C7.49496627 21.23526201 8.30561889 25.602253 9 30 C5.38862504 29.30539396 1.82816719 28.48622384 -1.73828125 27.58984375 C-2.80498047 27.32236328 -3.87167969 27.05488281 -4.97070312 26.77929688 C-6.07349609 26.50150391 -7.17628906 26.22371094 -8.3125 25.9375 C-9.43462891 25.65583984 -10.55675781 25.37417969 -11.71289062 25.08398438 C-14.47552933 24.39038572 -17.23788683 23.695688 -20 23 C-20 20 -20 20 -18.48706055 18.14648438 C-17.79394775 17.46908203 -17.10083496 16.79167969 -16.38671875 16.09375 C-15.2565332 14.97806641 -15.2565332 14.97806641 -14.10351562 13.83984375 C-13.30623047 13.06769531 -12.50894531 12.29554687 -11.6875 11.5 C-10.90181641 10.72785156 -10.11613281 9.95570312 -9.30664062 9.16015625 C-7.84148691 7.72118826 -6.3732821 6.28531589 -4.90112305 4.85351562 C-3.25443112 3.24805972 -1.62189118 1.63044913 0 0 Z " fill="#F4F4F4" transform="translate(229,104)"/>
<path d="M0 0 C6.63762821 1.39099838 13.08058342 3.13714884 19.5625 5.125 C20.47580078 5.40214844 21.38910156 5.67929688 22.33007812 5.96484375 C24.55430717 6.64026409 26.77756953 7.31868967 29 8 C27.51346494 11.46629835 25.54277649 13.69022036 22.8671875 16.328125 C22.06152344 17.12734375 21.25585938 17.9265625 20.42578125 18.75 C19.58402344 19.575 18.74226563 20.4 17.875 21.25 C17.02550781 22.09046875 16.17601562 22.9309375 15.30078125 23.796875 C13.20495077 25.86915683 11.10459287 27.93662393 9 30 C8.01 29.67 7.02 29.34 6 29 C5.15625 26.15625 5.15625 26.15625 4.5 22.5 C3.6743011 18.20112319 2.81286383 14.11367359 1.3125 10 C0.0795083 6.56431999 -0.28330048 3.68290621 0 0 Z " fill="#F6F6F6" transform="translate(234,103)"/>
<path d="M0 0 C2 1 2 1 2.67016602 2.71484375 C2.95911743 3.81505859 2.95911743 3.81505859 3.25390625 4.9375 C3.46853516 5.75089844 3.68316406 6.56429687 3.90429688 7.40234375 C4.12150391 8.25957031 4.33871094 9.11679688 4.5625 10 C4.78357422 10.82628906 5.00464844 11.65257812 5.23242188 12.50390625 C6.65641701 18.00199018 7.49250027 23.34337384 8 29 C-1.89917502 27.46506631 -11.39030039 24.76979241 -21 22 C-19.54990314 18.66878456 -17.72522324 16.47943438 -15.15625 13.92578125 C-14.40472656 13.17619141 -13.65320313 12.42660156 -12.87890625 11.65429688 C-12.09386719 10.88150391 -11.30882812 10.10871094 -10.5 9.3125 C-9.71496094 8.52810547 -8.92992187 7.74371094 -8.12109375 6.93554688 C-2.28093696 1.14046848 -2.28093696 1.14046848 0 0 Z " fill="#F2F2F2" transform="translate(203,130)"/>
<path d="M0 0 C7.08985042 1.57817918 14.15530622 3.24475878 21.1875 5.0625 C23.06501953 5.54396484 23.06501953 5.54396484 24.98046875 6.03515625 C28 7 28 7 30 9 C22.68611365 16.43488815 15.41221164 23.78790525 7 30 C5.29199921 26.09810163 4.33968104 22.29602429 3.5 18.125 C2.33314824 12.45530157 2.33314824 12.45530157 0.8125 6.875 C0 4 0 4 0 0 Z " fill="#F6F6F6" transform="translate(163,83)"/>
<path d="M0 0 C3.71481018 0.6952215 7.32015874 1.6031217 10.95703125 2.62890625 C12.06884766 2.94150391 13.18066406 3.25410156 14.32617188 3.57617188 C15.47666016 3.90166016 16.62714844 4.22714844 17.8125 4.5625 C19.56723633 5.0565332 19.56723633 5.0565332 21.35742188 5.56054688 C24.23875741 6.37202505 27.1195929 7.18523361 30 8 C28.90860377 11.27418868 28.27089683 11.83548146 25.6875 13.9375 C21.18988462 17.72496558 17.10997691 21.85390379 13.0378418 26.08764648 C11.72788102 27.42790771 10.36762836 28.71863743 9 30 C8.34 30 7.68 30 7 30 C5.07448831 24.5554497 3.92147784 19.08906408 2.78125 13.4375 C2.06621382 10.00803214 2.06621382 10.00803214 0.90625 6.8125 C0 4 0 4 0 0 Z " fill="#F7F7F7" transform="translate(154,47)"/>
<path d="M0 0 C6.27643958 0.88916227 12.17340348 1.83520628 18.04296875 4.26953125 C21.58710245 5.59239153 25.29564898 6.27113464 29 7 C29 10 29 10 27.19580078 12.17651367 C26.37063965 12.99869385 25.54547852 13.82087402 24.6953125 14.66796875 C23.80199219 15.56064453 22.90867187 16.45332031 21.98828125 17.37304688 C21.5185791 17.83445068 21.04887695 18.29585449 20.56494141 18.77124023 C19.12871194 20.18384911 17.70629161 21.60933319 16.28515625 23.03710938 C9.26672408 30 9.26672408 30 7 30 C5.03191308 22.37889745 3.26211737 14.73527001 1.6484375 7.03125 C1.1437003 4.6717556 0.60658605 2.33478403 0 0 Z " fill="#F7F7F7" transform="translate(260,78)"/>
<path d="M0 0 C2.83497577 2.83497577 3.16005382 6.1410248 4 9.9375 C4.17370117 10.69861084 4.34740234 11.45972168 4.52636719 12.24389648 C5.85310455 18.13393829 7.00115182 24.04554832 8 30 C1.21973791 28.56745232 -5.40965402 26.81020502 -12.0625 24.875 C-13.02349609 24.59785156 -13.98449219 24.32070312 -14.97460938 24.03515625 C-17.31712279 23.35920711 -19.65888777 22.68078301 -22 22 C-15.22718406 13.99295152 -7.9900908 6.80007728 0 0 Z " fill="#F4F4F4" transform="translate(186,58)"/>
<path d="M0 0 C2.75242715 2.34781228 3.57242416 4.21336447 4.38671875 7.7109375 C4.60263672 8.62617187 4.81855469 9.54140625 5.04101562 10.484375 C5.36102539 11.91523437 5.36102539 11.91523437 5.6875 13.375 C5.91244141 14.32117188 6.13738281 15.26734375 6.36914062 16.2421875 C7.37615087 20.60079719 8.12678128 24.5070319 8 29 C2.00622307 28.33584688 -3.54970506 26.81019854 -9.3125 25.0625 C-10.21806641 24.79759766 -11.12363281 24.53269531 -12.05664062 24.25976562 C-12.92095703 24.00001953 -13.78527344 23.74027344 -14.67578125 23.47265625 C-15.45864502 23.23812744 -16.24150879 23.00359863 -17.0480957 22.76196289 C-19 22 -19 22 -21 20 C-18.62926591 17.59991396 -16.25264978 15.20573362 -13.875 12.8125 C-13.20984375 12.13896484 -12.5446875 11.46542969 -11.859375 10.77148438 C-8.05912847 6.95260919 -4.20300449 3.37156902 0 0 Z " fill="#F4F4F4" transform="translate(256,79)"/>
<path d="M0 0 C9.89755534 2.15363473 19.41381318 4.70874253 29 8 C24.63178152 13.21608697 20.05759125 18.12518617 15.25 22.9375 C14.57839844 23.62134766 13.90679687 24.30519531 13.21484375 25.00976562 C12.24998047 25.9775293 12.24998047 25.9775293 11.265625 26.96484375 C10.68586914 27.5487085 10.10611328 28.13257324 9.50878906 28.73413086 C8 30 8 30 6 30 C5.90203125 29.35675781 5.8040625 28.71351563 5.703125 28.05078125 C4.61664635 21.48507837 2.94895398 15.34272977 0.8046875 9.04296875 C-0.02722041 5.89706457 -0.14522067 3.23842086 0 0 Z " fill="#F5F5F5" transform="translate(172,119)"/>
<path d="M0 0 C5.4829122 0.48736997 10.07585158 2.05906674 15.20703125 4.01953125 C18.50778481 5.17825732 21.78345075 5.89833304 25.22265625 6.5078125 C27 7 27 7 29 9 C23 15 17 21 11 27 C10.45899658 27.58225342 9.91799316 28.16450684 9.3605957 28.7644043 C8 30 8 30 6 30 C4.99282887 25.75166645 3.99550625 21.50108076 3 17.25 C2.71382812 16.0434375 2.42765625 14.836875 2.1328125 13.59375 C1.86210937 12.43359375 1.59140625 11.2734375 1.3125 10.078125 C1.06113281 9.00981445 0.80976563 7.94150391 0.55078125 6.84082031 C0 4 0 4 0 0 Z " fill="#F6F6F6" transform="translate(199,93)"/>
<path d="M0 0 C1.155 0.4125 2.31 0.825 3.5 1.25 C10.54434758 3.60935086 17.78624976 5.24977863 25 7 C26.33370315 7.33185055 27.66727345 7.66424884 29 8 C27.51346494 11.46629835 25.54277649 13.69022036 22.8671875 16.328125 C22.06152344 17.12734375 21.25585938 17.9265625 20.42578125 18.75 C19.58402344 19.575 18.74226563 20.4 17.875 21.25 C17.02550781 22.09046875 16.17601562 22.9309375 15.30078125 23.796875 C13.20495077 25.86915683 11.10459287 27.93662393 9 30 C8.01 29.67 7.02 29.34 6 29 C5.15625 26.19140625 5.15625 26.19140625 4.5 22.5625 C3.48517189 17.2896894 2.26903515 12.26786298 0.55078125 7.18359375 C-0.0701407 4.72192447 -0.09333107 2.52882755 0 0 Z " fill="#F6F6F6" transform="translate(225,67)"/>
<path d="M0 0 C3.24276103 9.64164444 5.83645906 18.85809088 7 29 C5.60301364 28.71390693 4.2074567 28.42083095 2.8125 28.125 C2.03519531 27.96257812 1.25789063 27.80015625 0.45703125 27.6328125 C-2 27 -2 27 -4.3828125 26.02734375 C-7.44396461 24.82572733 -10.47556014 24.13702168 -13.6875 23.4375 C-19.79476861 22.10261569 -19.79476861 22.10261569 -22 21 C-20.63543881 17.9040964 -19.12168778 15.92713685 -16.62890625 13.65234375 C-15.97212891 13.04712891 -15.31535156 12.44191406 -14.63867188 11.81835938 C-13.95353516 11.19767578 -13.26839844 10.57699219 -12.5625 9.9375 C-11.20931015 8.69696929 -9.85643417 7.45609611 -8.50390625 6.21484375 C-7.90392822 5.66948975 -7.3039502 5.12413574 -6.68579102 4.56225586 C-5.5546349 3.51399113 -4.46055785 2.4243692 -3.40600586 1.29907227 C-2 0 -2 0 0 0 Z " fill="#F5F5F5" transform="translate(222,69)"/>
<path d="M0 0 C10.147433 1.89418749 20.1500888 4.94073346 30 8 C30 8.66 30 9.32 30 10 C28.671875 11.3046875 28.671875 11.3046875 26.75 12.875 C22.24523527 16.67060677 18.17123151 20.81319457 14.12597656 25.08740234 C12.80558468 26.44718952 11.40726695 27.73033248 10 29 C9.01 29 8.02 29 7 29 C4.91216722 21.74441091 3.18462249 14.45826415 1.6484375 7.06640625 C1.14669 4.69368464 0.61105577 2.34622357 0 0 Z " fill="#F7F7F7" transform="translate(207,129)"/>
<path d="M0 0 C19.96810934 5.18678815 19.96810934 5.18678815 29 8 C25.03392395 17.0338399 14.79724946 24.25556622 7 30 C3.87307091 20.0344054 1.21236723 10.40464416 0 0 Z " fill="#F7F7F7" transform="translate(190,57)"/>
<path d="M0 0 C0.68126953 0.12246094 1.36253906 0.24492188 2.06445312 0.37109375 C8.45077013 1.63459623 8.45077013 1.63459623 10.5625 4.75 C10.5625 5.41 10.5625 6.07 10.5625 6.75 C11.2225 7.08 11.8825 7.41 12.5625 7.75 C11.64017578 7.5334375 11.64017578 7.5334375 10.69921875 7.3125 C9.89097656 7.126875 9.08273438 6.94125 8.25 6.75 C7.44949219 6.564375 6.64898437 6.37875 5.82421875 6.1875 C3.45554062 5.65504177 3.45554062 5.65504177 0.5625 5.75 C-0.0975 5.75 -0.7575 5.75 -1.4375 5.75 C-1.7675 6.41 -2.0975 7.07 -2.4375 7.75 C-2.4375 7.09 -2.4375 6.43 -2.4375 5.75 C-9.97805023 12.18991091 -17.19224095 18.98300945 -24.4375 25.75 C-24.4375 22.75 -24.4375 22.75 -23.23168945 21.23535156 C-22.67698975 20.7090918 -22.12229004 20.18283203 -21.55078125 19.640625 C-20.94169922 19.05023438 -20.33261719 18.45984375 -19.70507812 17.8515625 C-19.05990234 17.24054688 -18.41472656 16.62953125 -17.75 16 C-13.05232411 11.52970904 -9.05590473 7.1464736 -5.4375 1.75 C-8.0775 1.42 -10.7175 1.09 -13.4375 0.75 C-12.81875 0.605625 -12.2 0.46125 -11.5625 0.3125 C-7.15870872 -0.85320946 -4.57923178 -0.92187733 0 0 Z " fill="#232323" transform="translate(224.4375,63.25)"/>
<path d="M0 0 C3.97128236 0.50697222 7.89016281 1.13145336 11.8125 1.9375 C12.56144531 2.09089844 13.31039062 2.24429688 14.08203125 2.40234375 C16 3 16 3 18 5 C17.34 5 16.68 5 16 5 C16 5.66 16 6.32 16 7 C16.66 7.33 17.32 7.66 18 8 C16.60301364 7.71390693 15.2074567 7.42083095 13.8125 7.125 C13.03519531 6.96257813 12.25789062 6.80015625 11.45703125 6.6328125 C8.8594488 5.9638008 6.46838862 5.04347512 4 4 C4.37253906 5.18078125 4.74507812 6.3615625 5.12890625 7.578125 C5.60730125 9.13525381 6.08513666 10.69255461 6.5625 12.25 C6.80935547 13.02730469 7.05621094 13.80460937 7.31054688 14.60546875 C7.53935547 15.35957031 7.76816406 16.11367188 8.00390625 16.890625 C8.21861572 17.58188477 8.4333252 18.27314453 8.65454102 18.98535156 C9.0491764 21.28678704 8.71084423 22.79616682 8 25 C8 24.01 8 23.02 8 22 C7.34 22 6.68 22 6 22 C5.67 22.66 5.34 23.32 5 24 C4.34807312 21.50145233 3.70336936 19.0013863 3.0625 16.5 C2.88009766 15.80390625 2.69769531 15.1078125 2.50976562 14.390625 C1.29034434 9.60162506 0.52577635 4.91462529 0 0 Z " fill="#323232" transform="translate(150,43)"/>
<path d="M0 0 C0.66 0.33 1.32 0.66 2 1 C2.23918229 2.60593822 2.46779115 4.21412108 2.64453125 5.828125 C3.20070697 9.22629753 4.36057669 12.41727613 5.4765625 15.66796875 C6.04270452 18.19025822 5.8333405 19.58331256 5 22 C5 21.01 5 20.02 5 19 C4.34 19 3.68 19 3 19 C2.67 19.66 2.34 20.32 2 21 C1.32900016 18.39688008 0.66304662 15.79264602 0 13.1875 C-0.19078125 12.44951172 -0.3815625 11.71152344 -0.578125 10.95117188 C-1.35262914 7.89464659 -2 5.16626522 -2 2 C-1.34 2 -0.68 2 0 2 C0 1.34 0 0.68 0 0 Z " fill="#282828" transform="translate(153,46)"/>
<path d="M0 0 C0.99 0 1.98 0 3 0 C3.86689178 2.57967797 4.71873789 5.16276127 5.5625 7.75 C5.80935547 8.47960937 6.05621094 9.20921875 6.31054688 9.9609375 C6.53935547 10.66992188 6.76816406 11.37890625 7.00390625 12.109375 C7.32597046 13.08342285 7.32597046 13.08342285 7.65454102 14.07714844 C8.06008636 16.33444538 7.69296911 17.83473482 7 20 C7 19.01 7 18.02 7 17 C6.34 17 5.68 17 5 17 C4.67 17.66 4.34 18.32 4 19 C3.32900016 16.39688008 2.66304662 13.79264602 2 11.1875 C1.80921875 10.44951172 1.6184375 9.71152344 1.421875 8.95117188 C0.64737086 5.89464659 0 3.16626522 0 0 Z " fill="#282828" transform="translate(170,125)"/>
<path d="M0 0 C0.66 0 1.32 0 2 0 C2.86689178 2.57967797 3.71873789 5.16276127 4.5625 7.75 C4.80935547 8.47960937 5.05621094 9.20921875 5.31054688 9.9609375 C5.53935547 10.66992188 5.76816406 11.37890625 6.00390625 12.109375 C6.32597046 13.08342285 6.32597046 13.08342285 6.65454102 14.07714844 C7.06008636 16.33444538 6.69296911 17.83473482 6 20 C6 19.01 6 18.02 6 17 C5.34 17 4.68 17 4 17 C3.67 17.66 3.34 18.32 3 19 C2.49161436 16.96040523 1.99366114 14.91820862 1.5 12.875 C1.2215625 11.73804687 0.943125 10.60109375 0.65625 9.4296875 C0.03546235 6.18533302 -0.12006768 3.29185543 0 0 Z " fill="#282828" transform="translate(233,109)"/>
<path d="M0 0 C0.72832031 0.20238281 1.45664063 0.40476562 2.20703125 0.61328125 C2.99335938 0.82082031 3.7796875 1.02835937 4.58984375 1.2421875 C5.39164063 1.46777344 6.1934375 1.69335938 7.01953125 1.92578125 C8.53944161 2.30450479 10.06021167 2.67980388 11.58203125 3.05078125 C12.71640625 3.33953125 13.85078125 3.62828125 15.01953125 3.92578125 C14.02953125 4.42078125 14.02953125 4.42078125 13.01953125 4.92578125 C13.01953125 5.58578125 13.01953125 6.24578125 13.01953125 6.92578125 C4.01953125 4.92578125 4.01953125 4.92578125 -4.98046875 2.92578125 C-2.55557734 -0.09577114 -2.55557734 -0.09577114 0 0 Z " fill="#282828" transform="translate(169.98046875,81.07421875)"/>
<path d="M0 0 C0.66 0 1.32 0 2 0 C6.59225513 13.6332574 6.59225513 13.6332574 6 20 C4 19 4 19 2.9296875 16.26953125 C2.58164063 15.12871094 2.23359375 13.98789063 1.875 12.8125 C1.52179688 11.68457031 1.16859375 10.55664062 0.8046875 9.39453125 C0.028384 6.11973638 -0.15245389 3.3489037 0 0 Z " fill="#0C0C0C" transform="translate(189,64)"/>
<path d="M0 0 C0.66 0 1.32 0 2 0 C6.59225513 13.6332574 6.59225513 13.6332574 6 20 C4 19 4 19 2.9296875 16.26953125 C2.58164063 15.12871094 2.23359375 13.98789063 1.875 12.8125 C1.52179688 11.68457031 1.16859375 10.55664062 0.8046875 9.39453125 C0.028384 6.11973638 -0.15245389 3.3489037 0 0 Z " fill="#0A0A0A" transform="translate(223,69)"/>
<path d="M0 0 C6.81987029 0.43300764 11.91643021 1.90787824 18 5 C14.32694623 6.22435126 12.70365337 5.61445642 9 4.625 C7.948125 4.34914063 6.89625 4.07328125 5.8125 3.7890625 C3.86066003 3.24146295 1.92317188 2.64105729 0 2 C0 1.34 0 0.68 0 0 Z " fill="#050505" transform="translate(200,91)"/>
<path d="M0 0 C6.61085476 0.48969295 11.94977014 2.33442742 18 5 C14.32694623 6.22435126 12.70365337 5.61445642 9 4.625 C7.948125 4.34914063 6.89625 4.07328125 5.8125 3.7890625 C3.86066003 3.24146295 1.92317188 2.64105729 0 2 C0 1.34 0 0.68 0 0 Z " fill="#000000" transform="translate(200,58)"/>
<path d="M0 0 C4.96916636 0.51405169 9.29026351 1.23384882 14 3 C14 3.99 14 4.98 14 6 C9.16371695 5.00956295 4.52381127 4.04301154 0 2 C0 1.34 0 0.68 0 0 Z " fill="#0E0E0E" transform="translate(166,48)"/>
<path d="M0 0 C5.27749285 0.53851968 9.25645564 1.77343836 14 4 C14 4.33 14 4.66 14 5 C9.02906176 4.58846263 4.55491614 4.20399168 0 2 C0 1.34 0 0.68 0 0 Z " fill="#0B0B0B" transform="translate(189,154)"/>
<path d="M0 0 C5.27749285 0.53851968 9.25645564 1.77343836 14 4 C14 4.33 14 4.66 14 5 C9.02906176 4.58846263 4.55491614 4.20399168 0 2 C0 1.34 0 0.68 0 0 Z " fill="#070707" transform="translate(219,130)"/>
<path d="M0 0 C0.66 0 1.32 0 2 0 C3.75747614 4.50353262 4.19294408 8.17639811 4 13 C2 12 2 12 0.875 8.75 C0.14536518 5.62299365 -0.19234975 3.17377095 0 0 Z " fill="#030303" transform="translate(200,108)"/>
<path d="M0 0 C0.66 0 1.32 0 2 0 C3.59138085 4.17737474 4.21278058 7.53160785 4 12 C3.34 12 2.68 12 2 12 C0.70756464 7.8803623 -0.26252625 4.33168317 0 0 Z " fill="#060606" transform="translate(262,94)"/>
<path d="M0 0 C0.66 0 1.32 0 2 0 C3.59138085 4.17737474 4.21278058 7.53160785 4 12 C3.34 12 2.68 12 2 12 C0.70756464 7.8803623 -0.26252625 4.33168317 0 0 Z " fill="#020202" transform="translate(181,166)"/>
<path d="M0 0 C2.18975773 3.28463659 2.99806563 6.20696275 4 10 C3.34 10 2.68 10 2 10 C2 9.01 2 8.02 2 7 C0.68 7 -0.64 7 -2 7 C-2 5.68 -2 4.36 -2 3 C-1.34 3 -0.68 3 0 3 C0 2.01 0 1.02 0 0 Z " fill="#525252" transform="translate(185,175)"/>
<path d="M0 0 C0.99 1.485 0.99 1.485 2 3 C2.66 2.01 3.32 1.02 4 0 C4.33 2.64 4.66 5.28 5 8 C4.34 8 3.68 8 3 8 C2.67 8.66 2.34 9.32 2 10 C0.68373308 6.38026598 0 3.90432869 0 0 Z " fill="#3D3D3D" transform="translate(178,158)"/>
<path d="M0 0 C2.1519437 3.22791555 2.20086443 4.28400809 2 8 C1.34 8 0.68 8 0 8 C-0.33 8.66 -0.66 9.32 -1 10 C-2.25 3.375 -2.25 3.375 0 0 Z " fill="#3E3E3E" transform="translate(262,86)"/>
<path d="M0 0 C0.33 0 0.66 0 1 0 C1.33 2.64 1.66 5.28 2 8 C1.34 8 0.68 8 0 8 C-0.33 8.66 -0.66 9.32 -1 10 C-1.33 8.02 -1.66 6.04 -2 4 C-1.34 4 -0.68 4 0 4 C0 2.68 0 1.36 0 0 Z " fill="#393939" transform="translate(200,100)"/>
<path d="M0 0 C2.6875 0.3125 2.6875 0.3125 5 1 C4.67 1.99 4.34 2.98 4 4 C1.69 3.67 -0.62 3.34 -3 3 C-1.8125 1.4375 -1.8125 1.4375 0 0 Z " fill="#3D3D3D" transform="translate(215,128)"/>
</svg>
